<svg width="40" height="40" viewBox="0 0 40 40" fill="none" xmlns="http://www.w3.org/2000/svg">
<rect width="40" height="40" rx="8" fill="#1D65C1"/>
<path d="M17 20C14.7812 20 13 18.2188 13 16C13 13.8125 14.7812 12 17 12C19.1875 12 21 13.8125 21 16C21 18.2188 19.1875 20 17 20ZM20 22V27C20 27.375 20.0938 27.7188 20.25 28H11.5C10.6562 28 10 27.3438 10 26.5V25.2188C10 22.9062 11.875 21.0312 14.1875 21H14.7188C15.4062 21.3438 16.1875 21.5 17 21.5C17.8125 21.5 18.5625 21.3438 19.25 21H19.7812C19.9375 21 20.0938 21.0312 20.25 21.0625C20.0938 21.3438 20 21.6562 20 22ZM29 21C29.5312 21 30 21.4688 30 22V27C30 27.5625 29.5312 28 29 28H22C21.4375 28 21 27.5625 21 27V22C21 21.4688 21.4375 21 22 21H23V18.5C23 17.125 24.0938 16 25.5 16C26.875 16 28 17.125 28 18.5V21H29ZM25.5 25.5C26.0312 25.5 26.5 25.0625 26.5 24.5C26.5 23.9688 26.0312 23.5 25.5 23.5C24.9375 23.5 24.5 23.9688 24.5 24.5C24.5 25.0625 24.9375 25.5 25.5 25.5ZM26.5 21V18.5C26.5 17.9688 26.0312 17.5 25.5 17.5C24.9375 17.5 24.5 17.9688 24.5 18.5V21H26.5Z" fill="white"/>
</svg>
