<svg width="40" height="40" viewBox="0 0 40 40" fill="none" xmlns="http://www.w3.org/2000/svg">
<rect width="40" height="40" rx="8" fill="#1D65C1"/>
<path d="M28.25 14C28.6562 14 29 14.3438 29 14.75V24.5C29 25.3438 28.3125 26 27.5 26H12.75C11.7812 26 11 25.2188 11 24.25V15.75C11 15.3438 11.3125 15 11.75 15H13V14.75C13 14.3438 13.3125 14 13.75 14H28.25ZM12.75 24.5C12.875 24.5 13 24.4062 13 24.25V16.5H12.5V24.25C12.5 24.4062 12.5938 24.5 12.75 24.5ZM20.125 24C20.3125 24 20.5 23.8438 20.5 23.625V23.375C20.5 23.1875 20.3125 23 20.125 23H15.375C15.1562 23 15 23.1875 15 23.375V23.625C15 23.8438 15.1562 24 15.375 24H20.125ZM26.625 24C26.8125 24 27 23.8438 27 23.625V23.375C27 23.1875 26.8125 23 26.625 23H21.875C21.6562 23 21.5 23.1875 21.5 23.375V23.625C21.5 23.8438 21.6562 24 21.875 24H26.625ZM20.125 21C20.3125 21 20.5 20.8438 20.5 20.625V20.375C20.5 20.1875 20.3125 20 20.125 20H15.375C15.1562 20 15 20.1875 15 20.375V20.625C15 20.8438 15.1562 21 15.375 21H20.125ZM26.625 21C26.8125 21 27 20.8438 27 20.625V20.375C27 20.1875 26.8125 20 26.625 20H21.875C21.6562 20 21.5 20.1875 21.5 20.375V20.625C21.5 20.8438 21.6562 21 21.875 21H26.625ZM26.625 18C26.8125 18 27 17.8438 27 17.625V16.375C27 16.1875 26.8125 16 26.625 16H15.375C15.1562 16 15 16.1875 15 16.375V17.625C15 17.8438 15.1562 18 15.375 18H26.625Z" fill="white"/>
</svg>
