<svg width="40" height="40" viewBox="0 0 40 40" fill="none" xmlns="http://www.w3.org/2000/svg">
<rect width="40" height="40" rx="8" fill="#5C6E8C"/>
<path d="M20 28C18.875 28 18 27.125 18 26H21.9688C21.9688 27.125 21.0938 28 20 28ZM26.7188 23.3438C26.9062 23.5312 27 23.7812 27 24C26.9688 24.5312 26.5938 25 25.9688 25H14C13.375 25 13 24.5312 13 24C12.9688 23.7812 13.0625 23.5312 13.25 23.3438C13.8438 22.6875 15 21.7188 15 18.5C15 16.0938 16.6875 14.1562 19 13.6562V13C19 12.4688 19.4375 12 20 12C20.5312 12 20.9688 12.4688 20.9688 13V13.6562C23.2812 14.1562 24.9688 16.0938 24.9688 18.5C24.9688 21.7188 26.125 22.6875 26.7188 23.3438Z" fill="white"/>
</svg>
