<svg width="40" height="40" viewBox="0 0 40 40" fill="none" xmlns="http://www.w3.org/2000/svg">
<rect width="40" height="40" rx="8" fill="#3B82F6"/>
<path d="M17 20C14.7812 20 13 18.2188 13 16C13 13.8125 14.7812 12 17 12C19.1875 12 21 13.8125 21 16C21 18.2188 19.1875 20 17 20ZM19.7812 21C22.0938 21 24 22.9062 24 25.2188V26.5C24 27.3438 23.3125 28 22.5 28H11.5C10.6562 28 10 27.3438 10 26.5V25.2188C10 22.9062 11.875 21 14.1875 21H14.7188C15.4062 21.3438 16.1875 21.5 17 21.5C17.8125 21.5 18.5625 21.3438 19.25 21H19.7812ZM29.875 17C30.0312 17.1562 30.0312 17.375 29.875 17.5312L25.4688 21.9062C25.3125 22.0625 25.0938 22.0625 24.9375 21.9062L22.375 19.3438C22.25 19.1875 22.25 18.9375 22.375 18.8125L23.25 17.9375C23.4062 17.7812 23.6562 17.7812 23.7812 17.9375L25.2188 19.375L28.5 16.125C28.625 15.9688 28.875 15.9688 29 16.125L29.875 17Z" fill="white"/>
</svg>
