<svg width="40" height="40" viewBox="0 0 40 40" fill="none" xmlns="http://www.w3.org/2000/svg">
<rect width="40" height="40" rx="8" fill="#3B82F6"/>
<path d="M30 16.9877C30 17.4021 29.8711 17.797 29.637 18.0987C29.4035 18.3993 29.0885 18.5715 28.7723 18.5715H28.2936V15.4036H28.7723C29.438 15.4036 30 16.1287 30 16.9877Z" fill="white" stroke="white" stroke-width="0.390625"/>
<path d="M27.443 10.4798V23.754C27.443 23.9224 27.3756 24.0441 27.3191 24.1168C27.2229 24.241 27.085 24.3177 26.9509 24.3238L26.5961 24.1969V10.1464L26.9905 10.0097C27.1007 9.9798 27.2198 10.0201 27.31 10.1172C27.3598 10.171 27.4429 10.2894 27.4429 10.4795L27.443 10.4798Z" fill="white" stroke="white" stroke-width="0.390625"/>
<path d="M25.7449 10.4427V23.8919L16.7845 20.6819V13.5547L25.7449 10.4427Z" fill="white" stroke="white" stroke-width="0.390625"/>
<path d="M13.1915 11.4177H14.4681V12.5337H13.1915V11.4177Z" fill="white" stroke="white" stroke-width="0.390625"/>
<path d="M15.9333 13.6848V20.549H12.3404C11.0498 20.549 10 19.1371 10 17.4013V16.8323C10 15.0965 11.0498 13.6846 12.3404 13.6846L15.9333 13.6848ZM14.4095 15.7103C14.4095 15.3944 14.2193 15.138 13.9839 15.138H12.8387C12.6038 15.138 12.4131 15.3944 12.4131 15.7103C12.4131 16.0262 12.6038 16.2826 12.8387 16.2826H13.9837C14.2191 16.2826 14.4095 16.0262 14.4095 15.7103ZM14.4095 18.2857C14.4095 17.9698 14.2193 17.7134 13.9839 17.7134H12.8387C12.6038 17.7134 12.4131 17.9698 12.4131 18.2857C12.4131 18.6016 12.6038 18.858 12.8387 18.858H13.9837C14.2191 18.858 14.4095 18.6016 14.4095 18.2857Z" fill="white" stroke="white" stroke-width="0.390625"/>
<path d="M14.9619 21.6938L16.3708 30.0001H14.7245L13.3156 21.6938H14.9619Z" fill="white" stroke="white" stroke-width="0.390625"/>
</svg>
