<svg width="14" height="15" viewBox="0 0 14 15" fill="none" xmlns="http://www.w3.org/2000/svg">
<path d="M12.3047 2.26953C12.7969 2.48828 13.125 2.95312 13.125 3.47266C13.125 9.54297 9.40625 12.9062 7.05469 13.8906C6.72656 14.0273 6.37109 14.0273 6.04297 13.8906C3.11719 12.6602 0 8.91406 0 3.47266C0 2.95312 0.300781 2.48828 0.792969 2.26953L6.04297 0.0820312C6.20703 0.0273438 6.37109 0 6.5625 0C6.72656 0 6.89062 0.0273438 7.05469 0.0820312L12.3047 2.26953ZM6.5625 12.1953C9.10547 10.9102 11.2656 7.90234 11.3477 3.77344L6.5625 1.77734V12.1953Z" fill="#1D65C1"/>
</svg>
