<svg width="18" height="14" viewBox="0 0 18 14" fill="none" xmlns="http://www.w3.org/2000/svg">
<path d="M5.71484 9.625C7.41016 9.625 8.77734 11.0195 8.77734 12.7148C8.75 13.4258 8.17578 14 7.46484 14H1.33984C0.601562 14 0.0273438 13.4258 0.0273438 12.7148C0 11.0195 1.36719 9.625 3.08984 9.625C3.14453 9.625 3.19922 9.65234 3.28125 9.67969C3.63672 9.78906 3.99219 9.84375 4.40234 9.84375C4.78516 9.84375 5.14062 9.78906 5.49609 9.67969C5.57812 9.65234 5.63281 9.625 5.71484 9.625ZM4.40234 8.75C2.92578 8.75 1.77734 7.60156 1.77734 6.125C1.77734 4.67578 2.92578 3.5 4.40234 3.5C5.85156 3.5 7.02734 4.67578 7.02734 6.125C7.02734 7.60156 5.85156 8.75 4.40234 8.75ZM16.2148 0C16.9258 0 17.5273 0.628906 17.5273 1.36719V10.0352C17.5273 10.7734 16.9258 11.375 16.2148 11.375H9.51562C9.32422 10.6914 8.94141 10.0898 8.42188 9.625H10.5273V7.875H14.0273V9.625H15.7773V1.75H6.15234V3.11719C5.63281 2.81641 5.03125 2.625 4.40234 2.625V1.36719C4.40234 0.628906 4.97656 0 5.71484 0H16.2148Z" fill="#1D65C1"/>
</svg>
