<svg width="14" height="14" viewBox="0 0 14 14" fill="none" xmlns="http://www.w3.org/2000/svg">
<path d="M6.97707 7.59062e-05C3.12571 7.59062e-05 0 3.12039 0 6.93781C0 8.39843 0.459169 9.80923 1.31838 10.9876C1.15541 11.3031 0.948093 11.5686 0.696237 11.7678C0.414737 11.967 0.281523 12.3321 0.355587 12.6973C0.429665 13.0458 0.681418 13.3114 1.00737 13.3612C1.2296 13.3944 1.45172 13.411 1.68879 13.411C2.35538 13.411 2.97753 13.2616 3.52561 12.9629C4.57731 13.5604 5.76233 13.8758 6.9918 13.8758C10.8282 13.8755 13.9539 10.7552 13.9539 6.93774C13.9539 3.12015 10.8284 0 6.9771 0L6.97707 7.59062e-05ZM6.97707 12.5146C5.8513 12.5146 4.75517 12.1992 3.82195 11.6017L3.51094 11.4025L3.21463 11.6017C2.90361 11.8175 2.54803 11.9502 2.17774 12C2.35553 11.7344 2.50357 11.4191 2.60727 11.0871L2.74061 10.7054L2.48875 10.4066C1.67399 9.41066 1.22964 8.21564 1.22964 6.93754C1.22964 3.86703 3.82194 1.36073 6.99182 1.36073C10.1619 1.36099 12.7393 3.8672 12.7393 6.93787C12.7393 10.0084 10.1618 12.5147 6.97712 12.5147L6.97707 12.5146ZM10.2951 6.93781C10.2951 7.41909 9.95442 7.80092 9.52477 7.80092C9.09524 7.80092 8.75447 7.41923 8.75447 6.93781C8.75447 6.45653 9.09512 6.0747 9.52477 6.0747C9.95442 6.0747 10.2951 6.4564 10.2951 6.93781ZM7.74722 6.93781C7.74722 7.41909 7.40657 7.80092 6.97692 7.80092C6.54739 7.80092 6.20662 7.41923 6.20662 6.93781C6.20662 6.45653 6.54727 6.0747 6.97692 6.0747C7.40657 6.0747 7.74722 6.4564 7.74722 6.93781ZM5.18467 6.93781C5.18467 7.41909 4.84402 7.80092 4.41437 7.80092C3.98484 7.80092 3.64407 7.41923 3.64407 6.93781C3.64407 6.45653 3.98472 6.0747 4.41437 6.0747C4.8439 6.0747 5.18467 6.4564 5.18467 6.93781Z" fill="#1D65C1"/>
</svg>
