<svg width="18" height="14" viewBox="0 0 18 14" fill="none" xmlns="http://www.w3.org/2000/svg">
<path d="M8.99609 10.5V6.125H10.7461V13.125C10.7461 13.6172 10.3359 14 9.87109 14H2.87109C2.37891 14 1.99609 13.6172 1.99609 13.125V6.125H3.74609V10.5H8.99609ZM17.582 3.91016C17.9648 4.48438 17.5547 5.25 16.8711 5.25H1.12109C0.410156 5.25 0 4.48438 0.382812 3.91016L2.70703 0.410156C2.87109 0.164062 3.14453 0 3.44531 0H14.5195C14.8203 0 15.0938 0.164062 15.2578 0.410156L17.582 3.91016ZM14.2461 13.5625V6.125H15.9961V13.5625C15.9961 13.8086 15.7773 14 15.5586 14H14.6836C14.4375 14 14.2461 13.8086 14.2461 13.5625Z" fill="#1D65C1"/>
</svg>
