<svg width="16" height="14" viewBox="0 0 16 14" fill="none" xmlns="http://www.w3.org/2000/svg">
<path d="M15.75 6.5625C15.75 7.21875 15.3945 7.79297 14.8477 8.09375V12.25C14.8477 12.5234 14.6562 13.125 13.9727 13.125C13.7812 13.125 13.5898 13.0703 13.4531 12.9336L11.1016 11.0742C9.95312 10.1445 8.47656 9.625 7 9.625H6.20703C6.15234 9.92578 6.09766 10.1992 6.09766 10.5C6.09766 11.3203 6.37109 12.0312 6.80859 12.6328C7.24609 13.207 6.80859 14 6.09766 14H4.07422C3.74609 14 3.44531 13.8359 3.30859 13.5352C2.84375 12.6328 2.59766 11.5938 2.59766 10.5C2.59766 10.2266 2.625 9.92578 2.65234 9.625H1.75C0.765625 9.625 0 8.85938 0 7.875V5.25C0 4.29297 0.765625 3.5 1.75 3.5H7C8.47656 3.5 9.95312 3.00781 11.1016 2.07812L13.4531 0.21875C13.5898 0.0820312 13.7812 0 14 0C14.6836 0 14.875 0.65625 14.875 0.902344V5.05859C15.3945 5.35938 15.75 5.93359 15.75 6.5625ZM13.125 10.4453V2.70703L12.1953 3.44531C10.7188 4.62109 8.88672 5.25 7 5.25V7.875C8.88672 7.875 10.7188 8.53125 12.1953 9.70703L13.125 10.4453Z" fill="#1D65C1"/>
</svg>
