<svg width="40" height="40" viewBox="0 0 40 40" fill="none" xmlns="http://www.w3.org/2000/svg">
<rect width="40" height="40" rx="8" fill="#5C6E8C"/>
<path d="M27.5 21.4375C27.4062 21.7812 27.0938 22 26.75 22H17.5938L17.8125 23H26.1875C26.6562 23 27.0312 23.4688 26.9062 23.9375L26.75 24.6875C27.3438 24.9688 27.75 25.5625 27.75 26.25C27.75 27.2188 26.9375 28 26 28C25.0312 28 24.25 27.2188 24.25 26.25C24.25 25.7812 24.4375 25.3438 24.75 25H18.2188C18.5312 25.3438 18.75 25.7812 18.75 26.25C18.75 27.2188 17.9375 28 17 28C16.0312 28 15.25 27.2188 15.25 26.25C15.25 25.625 15.5938 25.0625 16.125 24.75L13.9062 14H11.75C11.3125 14 11 13.6875 11 13.25V12.75C11 12.3438 11.3125 12 11.75 12H14.9375C15.2812 12 15.5938 12.2812 15.6875 12.625L15.9688 14H28.2188C28.7188 14 29.0625 14.4688 28.9688 14.9375L27.5 21.4375Z" fill="white"/>
</svg>
